<svg version="1.1" id="Layer_1" xmlns="http://www.w3.org/2000/svg" xmlns:xlink="http://www.w3.org/1999/xlink" x="0px" y="0px"
	 width="100%" viewBox="0 0 200 200" enable-background="new 0 0 200 200" xml:space="preserve">
<path fill="#246AFC" opacity="1.000000" stroke="none" 
	d="
M134.000000,201.000000 
	C89.333336,201.000000 45.166672,201.000000 1.000006,201.000000 
	C1.000004,134.333344 1.000004,67.666679 1.000002,1.000015 
	C67.666656,1.000010 134.333313,1.000010 200.999969,1.000005 
	C200.999985,67.666649 200.999985,134.333298 201.000000,200.999969 
	C178.833328,201.000000 156.666672,201.000000 134.000000,201.000000 
M166.938339,71.067368 
	C166.938339,71.067368 166.916504,71.249092 166.600815,70.625435 
	C164.480408,69.296333 162.360016,67.967232 160.522751,66.815605 
	C158.206512,69.482109 156.398590,71.563438 154.528992,73.648445 
	C154.528992,73.648445 154.545120,73.588821 153.997421,73.692413 
	C153.706512,73.916801 153.415604,74.141197 153.165421,74.244034 
	C153.165421,74.244034 153.285431,74.289093 152.472382,74.139038 
	C148.565979,72.741341 145.426468,73.625504 143.171799,77.228172 
	C140.673508,81.220093 136.771622,84.941284 135.971207,89.243660 
	C134.810852,95.480774 135.721329,102.143196 136.098389,108.603790 
	C136.224335,110.761810 137.423492,112.857185 138.076492,114.940720 
	C138.076492,114.940720 138.125580,114.892578 138.052399,115.657043 
	C139.120865,117.040810 140.189316,118.424583 141.174362,119.838936 
	C141.174362,119.838936 141.209839,119.757477 141.175781,120.494377 
	C143.666840,125.369949 146.338074,129.959686 153.643265,128.499115 
	C154.604645,128.737320 155.629517,128.834763 156.517654,129.235352 
	C166.241653,133.621246 170.819687,130.652222 170.837830,119.870987 
	C170.859650,106.895721 171.028778,93.916222 170.721893,80.948311 
	C170.653275,78.048187 168.871063,75.188614 167.610962,71.804382 
	C167.326126,71.551903 167.041290,71.299416 166.938339,71.067368 
M33.998112,136.995712 
	C33.998112,136.995712 34.035801,136.953461 34.009571,137.733322 
	C35.314213,145.071304 40.223614,149.779999 48.188419,149.875961 
	C69.517326,150.132965 90.853706,150.122086 112.182472,149.851456 
	C119.935867,149.753082 126.865761,144.893387 128.095840,138.674042 
	C129.847229,129.818985 131.484543,120.953896 130.385605,111.688248 
	C129.430359,103.634163 128.435516,95.085190 130.142578,87.347107 
	C132.079727,78.566063 128.675766,70.986069 128.034439,62.858341 
	C127.981201,62.183609 126.156258,61.648670 124.878929,60.540951 
	C124.555817,60.071301 124.232704,59.601650 123.524635,58.736977 
	C123.206947,58.556503 122.889252,58.376030 122.021378,58.169895 
	C121.674728,57.801933 121.328079,57.433975 120.971001,56.290722 
	C120.063843,51.300205 115.978020,52.085636 112.708740,52.067074 
	C91.926285,51.949085 71.142738,51.959747 50.359806,52.019306 
	C40.223362,52.048351 31.297295,60.259552 31.147297,70.431007 
	C30.848236,90.710815 30.971952,110.998840 31.178947,131.280838 
	C31.198427,133.189453 33.050045,135.079346 33.998112,136.995712 
z"/>
<path fill="#F9FCFC" opacity="1.000000" stroke="none" 
	d="
M123.909592,59.132004 
	C124.232704,59.601650 124.555817,60.071301 125.035995,61.153839 
	C126.141090,65.408180 127.856056,69.038628 127.908524,72.692940 
	C128.180527,91.636314 128.112915,110.586327 127.991844,129.532928 
	C127.918022,141.084930 120.842964,148.094177 109.310387,148.153366 
	C91.526901,148.244644 73.732964,147.833893 55.962528,148.325607 
	C46.179569,148.596298 38.801914,145.657883 34.035801,136.953461 
	C34.035801,136.953461 33.998112,136.995712 34.031891,136.561310 
	C33.767494,133.503830 33.220791,130.881638 33.211124,128.257477 
	C33.143959,110.023834 33.161785,91.789711 33.206764,73.555878 
	C33.234001,62.514870 38.200096,56.364651 49.429752,53.915859 
	C70.960869,53.938198 92.023605,53.903084 113.445068,53.972748 
	C115.695007,54.755390 117.586235,55.433258 119.428497,56.142757 
	C119.379547,56.174385 119.455124,56.138859 119.809387,56.415604 
	C120.436249,56.816902 120.708847,56.941460 120.981438,57.066017 
	C121.328079,57.433975 121.674728,57.801933 122.440132,58.430878 
	C123.209122,58.838573 123.559357,58.985287 123.909592,59.132004 
M107.129036,129.061432 
	C107.141167,111.792999 107.184616,94.524422 107.107437,77.256386 
	C107.101082,75.836746 106.274773,74.420761 105.051819,72.818962 
	C103.591148,73.247597 101.953590,73.390503 100.705811,74.163010 
	C97.916466,75.889915 95.381538,78.023224 92.626732,79.811974 
	C90.686172,81.072014 87.911621,81.581100 89.092148,85.726616 
	C91.910027,86.251495 94.727905,86.776382 98.012619,87.388222 
	C98.012619,89.319496 98.012985,91.116905 98.012558,92.914307 
	C98.009903,104.051796 97.924362,115.190620 98.103172,126.325195 
	C98.127014,127.809258 99.490753,129.271805 100.900780,130.857971 
	C101.575012,130.831604 102.249252,130.805237 103.654831,130.990219 
	C104.751366,130.653610 105.847893,130.317017 107.129036,129.061432 
M55.258308,123.887665 
	C59.011471,130.707275 63.494614,132.729050 71.428131,131.179794 
	C76.907242,130.109818 80.860123,125.952896 80.989235,119.980583 
	C81.251839,107.833359 81.302910,95.670815 80.992683,83.526047 
	C80.813194,76.499619 76.038948,72.262657 69.097694,71.908264 
	C59.460037,71.416206 54.329357,76.141609 54.114429,86.277885 
	C53.892109,96.762932 54.027683,107.256927 54.121403,117.745987 
	C54.137409,119.537514 54.728775,121.323906 55.258308,123.887665 
z"/>
<path fill="#F8FBFD" opacity="1.000000" stroke="none" 
	d="
M167.877777,72.310364 
	C168.871063,75.188614 170.653275,78.048187 170.721893,80.948311 
	C171.028778,93.916222 170.859650,106.895721 170.837830,119.870987 
	C170.819687,130.652222 166.241653,133.621246 156.517654,129.235352 
	C155.629517,128.834763 154.604645,128.737320 153.323914,127.910461 
	C149.072998,124.800369 145.141418,122.278923 141.209839,119.757477 
	C141.209839,119.757477 141.174362,119.838936 141.125656,119.505051 
	C140.093155,117.744965 139.109375,116.318771 138.125580,114.892578 
	C138.125580,114.892578 138.076492,114.940720 138.104675,114.531380 
	C137.909241,106.367493 137.342636,98.601959 137.590332,90.862495 
	C137.739426,86.203819 140.581436,82.576889 144.662384,80.053261 
	C147.601120,78.235985 150.415543,76.217705 153.285431,74.289093 
	C153.285431,74.289093 153.165421,74.244034 153.434280,74.278763 
	C153.983795,74.071938 154.264450,73.830376 154.545120,73.588821 
	C154.545120,73.588821 154.528992,73.648445 154.896851,73.552162 
	C158.828979,71.032501 162.585236,69.622772 166.916504,71.249092 
	C166.916504,71.249092 166.938339,71.067368 166.949066,71.334442 
	C167.265778,71.837791 167.571777,72.074081 167.877777,72.310364 
z"/>
<path fill="#3470EA" opacity="1.000000" stroke="none" 
	d="
M34.022686,137.343384 
	C38.801914,145.657883 46.179569,148.596298 55.962528,148.325607 
	C73.732964,147.833893 91.526901,148.244644 109.310387,148.153366 
	C120.842964,148.094177 127.918022,141.084930 127.991844,129.532928 
	C128.112915,110.586327 128.180527,91.636314 127.908524,72.692940 
	C127.856056,69.038628 126.141090,65.408180 125.173767,61.407753 
	C126.156258,61.648670 127.981201,62.183609 128.034439,62.858341 
	C128.675766,70.986069 132.079727,78.566063 130.142578,87.347107 
	C128.435516,95.085190 129.430359,103.634163 130.385605,111.688248 
	C131.484543,120.953896 129.847229,129.818985 128.095840,138.674042 
	C126.865761,144.893387 119.935867,149.753082 112.182472,149.851456 
	C90.853706,150.122086 69.517326,150.132965 48.188419,149.875961 
	C40.223614,149.779999 35.314213,145.071304 34.022686,137.343384 
z"/>
<path fill="#3470EA" opacity="1.000000" stroke="none" 
	d="
M120.976219,56.678368 
	C120.708847,56.941460 120.436249,56.816902 119.814240,56.447449 
	C119.464821,56.202553 119.477455,56.111130 119.477455,56.111130 
	C117.586235,55.433258 115.695007,54.755390 113.080002,53.762909 
	C111.542854,53.314461 110.729691,53.065125 109.916092,53.063725 
	C90.867798,53.030888 71.819420,53.008682 52.771202,53.050240 
	C51.500675,53.053009 50.231289,53.576900 48.961372,53.858410 
	C38.200096,56.364651 33.234001,62.514870 33.206764,73.555878 
	C33.161785,91.789711 33.143959,110.023834 33.211124,128.257477 
	C33.220791,130.881638 33.767494,133.503830 34.058350,136.552429 
	C33.050045,135.079346 31.198427,133.189453 31.178947,131.280838 
	C30.971952,110.998840 30.848236,90.710815 31.147297,70.431007 
	C31.297295,60.259552 40.223362,52.048351 50.359806,52.019306 
	C71.142738,51.959747 91.926285,51.949085 112.708740,52.067074 
	C115.978020,52.085636 120.063843,51.300205 120.976219,56.678368 
z"/>
<path fill="#3470EA" opacity="1.000000" stroke="none" 
	d="
M152.878906,74.214066 
	C150.415543,76.217705 147.601120,78.235985 144.662384,80.053261 
	C140.581436,82.576889 137.739426,86.203819 137.590332,90.862495 
	C137.342636,98.601959 137.909241,106.367493 138.132477,114.551620 
	C137.423492,112.857185 136.224335,110.761810 136.098389,108.603790 
	C135.721329,102.143196 134.810852,95.480774 135.971207,89.243660 
	C136.771622,84.941284 140.673508,81.220093 143.171799,77.228172 
	C145.426468,73.625504 148.565979,72.741341 152.878906,74.214066 
z"/>
<path fill="#3470EA" opacity="1.000000" stroke="none" 
	d="
M141.192810,120.125931 
	C145.141418,122.278923 149.072998,124.800369 153.063354,127.673401 
	C146.338074,129.959686 143.666840,125.369949 141.192810,120.125931 
z"/>
<path fill="#3470EA" opacity="1.000000" stroke="none" 
	d="
M166.758667,70.937263 
	C162.585236,69.622772 158.828979,71.032501 154.927673,73.550323 
	C156.398590,71.563438 158.206512,69.482109 160.522751,66.815605 
	C162.360016,67.967232 164.480408,69.296333 166.758667,70.937263 
z"/>
<path fill="#3470EA" opacity="1.000000" stroke="none" 
	d="
M138.088989,115.274811 
	C139.109375,116.318771 140.093155,117.744965 141.167358,119.489754 
	C140.189316,118.424583 139.120865,117.040810 138.088989,115.274811 
z"/>
<path fill="#3470EA" opacity="1.000000" stroke="none" 
	d="
M167.744370,72.057373 
	C167.571777,72.074081 167.265778,71.837791 166.858124,71.324219 
	C167.041290,71.299416 167.326126,71.551903 167.744370,72.057373 
z"/>
<path fill="#3470EA" opacity="1.000000" stroke="none" 
	d="
M123.717117,58.934490 
	C123.559357,58.985287 123.209122,58.838573 122.715225,58.443707 
	C122.889252,58.376030 123.206947,58.556503 123.717117,58.934490 
z"/>
<path fill="#3470EA" opacity="1.000000" stroke="none" 
	d="
M154.271271,73.640610 
	C154.264450,73.830376 153.983795,74.071938 153.413910,74.339539 
	C153.415604,74.141197 153.706512,73.916801 154.271271,73.640610 
z"/>
<path fill="#306FF1" opacity="1.000000" stroke="none" 
	d="
M55.156326,123.500168 
	C54.728775,121.323906 54.137409,119.537514 54.121403,117.745987 
	C54.027683,107.256927 53.892109,96.762932 54.114429,86.277885 
	C54.329357,76.141609 59.460037,71.416206 69.097694,71.908264 
	C76.038948,72.262657 80.813194,76.499619 80.992683,83.526047 
	C81.302910,95.670815 81.251839,107.833359 80.989235,119.980583 
	C80.860123,125.952896 76.907242,130.109818 71.428131,131.179794 
	C63.494614,132.729050 59.011471,130.707275 55.156326,123.500168 
M63.039776,105.493561 
	C63.039474,109.477409 63.016960,113.461411 63.045944,117.445045 
	C63.068893,120.598976 64.034050,123.110008 67.752556,123.142868 
	C71.282623,123.174080 72.219116,120.741241 72.230881,117.810417 
	C72.273544,107.187759 72.270073,96.564629 72.215034,85.942039 
	C72.199226,82.891792 71.423378,80.102196 67.610184,80.188225 
	C63.890339,80.272148 63.100002,82.965591 63.087624,86.071007 
	C63.063145,92.212730 63.054794,98.354500 63.039776,105.493561 
z"/>
<path fill="#276BF9" opacity="1.000000" stroke="none" 
	d="
M89.035339,84.929443 
	C87.911621,81.581100 90.686172,81.072014 92.626732,79.811974 
	C95.381538,78.023224 97.916466,75.889915 100.705811,74.163010 
	C101.953590,73.390503 103.591148,73.247597 105.482201,73.379105 
	C105.885284,92.551201 105.857986,111.163155 105.529259,129.840714 
	C104.459717,130.197159 103.691597,130.488022 102.923485,130.778870 
	C102.249252,130.805237 101.575012,130.831604 100.418350,130.419708 
	C99.646065,127.874916 99.126877,125.770645 99.105949,123.661438 
	C99.014076,114.400314 99.056953,105.137741 99.068726,95.875725 
	C99.081573,85.765289 99.090096,85.765297 89.035339,84.929443 
z"/>
<path fill="#638BDB" opacity="1.000000" stroke="none" 
	d="
M89.063744,85.328033 
	C99.090096,85.765297 99.081573,85.765289 99.068726,95.875725 
	C99.056953,105.137741 99.014076,114.400314 99.105949,123.661438 
	C99.126877,125.770645 99.646065,127.874916 100.084946,130.362885 
	C99.490753,129.271805 98.127014,127.809258 98.103172,126.325195 
	C97.924362,115.190620 98.009903,104.051796 98.012558,92.914307 
	C98.012985,91.116905 98.012619,89.319496 98.012619,87.388222 
	C94.727905,86.776382 91.910027,86.251495 89.063744,85.328033 
z"/>
<path fill="#6E94DD" opacity="1.000000" stroke="none" 
	d="
M49.429752,53.915859 
	C50.231289,53.576900 51.500675,53.053009 52.771202,53.050240 
	C71.819420,53.008682 90.867798,53.030888 109.916092,53.063725 
	C110.729691,53.065125 111.542854,53.314461 112.721283,53.658134 
	C92.023605,53.903084 70.960869,53.938198 49.429752,53.915859 
z"/>
<path fill="#376BCF" opacity="1.000000" stroke="none" 
	d="
M105.830688,129.775116 
	C105.857986,111.163155 105.885284,92.551201 105.871017,73.471161 
	C106.274773,74.420761 107.101082,75.836746 107.107437,77.256386 
	C107.184616,94.524422 107.141167,111.792999 106.756760,129.477936 
	C106.199890,129.854691 106.015289,129.814911 105.830688,129.775116 
z"/>
<path fill="#638BDB" opacity="1.000000" stroke="none" 
	d="
M105.529259,129.840714 
	C106.015289,129.814911 106.199890,129.854691 106.664459,129.937439 
	C105.847893,130.317017 104.751366,130.653610 103.289154,130.884552 
	C103.691597,130.488022 104.459717,130.197159 105.529259,129.840714 
z"/>
<path fill="#246AFC" opacity="1.000000" stroke="none" 
	d="
M119.428497,56.142757 
	C119.477455,56.111130 119.464821,56.202553 119.459976,56.170708 
	C119.455124,56.138859 119.379547,56.174385 119.428497,56.142757 
z"/>
<path fill="#F4FBFB" opacity="1.000000" stroke="none" 
	d="
M63.039776,104.994904 
	C63.054794,98.354500 63.063145,92.212730 63.087624,86.071007 
	C63.100002,82.965591 63.890339,80.272148 67.610184,80.188225 
	C71.423378,80.102196 72.199226,82.891792 72.215034,85.942039 
	C72.270073,96.564629 72.273544,107.187759 72.230881,117.810417 
	C72.219116,120.741241 71.282623,123.174080 67.752556,123.142868 
	C64.034050,123.110008 63.068893,120.598976 63.045944,117.445045 
	C63.016960,113.461411 63.039474,109.477409 63.039776,104.994904 
z"/>
</svg>